<svg width="21" height="22" viewBox="0 0 21 22" fill="none" xmlns="http://www.w3.org/2000/svg">
<path d="M19.8744 7.50391C19.7653 7.56519 17.1672 8.85841 17.1672 11.7258C17.2897 14.9959 20.4459 16.1427 20.5 16.1427C20.4459 16.2039 20.0235 17.7049 18.7724 19.2783C17.7795 20.6336 16.6775 22 15.004 22C13.4121 22 12.8407 21.0967 11.004 21.0967C9.03147 21.0967 8.47335 22 6.96314 22C5.28967 22 4.10599 20.5603 3.05896 19.2178C1.69871 17.4606 0.54254 14.703 0.501723 12.0553C0.474217 10.6522 0.774128 9.27304 1.53544 8.10158C2.60998 6.46614 4.52835 5.35595 6.6233 5.31935C8.22845 5.2708 9.65703 6.30777 10.6366 6.30777C11.5754 6.30777 13.3305 5.31935 15.3163 5.31935C16.1735 5.32014 18.4592 5.55173 19.8744 7.50391ZM10.5009 5.03921C10.2151 3.75792 11.004 2.47663 11.7387 1.65931C12.6774 0.670887 14.1601 0 15.4388 0C15.5204 1.28129 15.0031 2.53791 14.0785 3.45312C13.2489 4.44154 11.8203 5.18565 10.5009 5.03921Z" fill="#111827"/>
</svg>
